<?xml version="1.0" encoding="utf-8"?>
<!-- Generated by Mocodo 4.2.12 -->
<svg width="625" height="364" viewBox="0 0 625 364" xmlns="http://www.w3.org/2000/svg">
<rect x="0" y="0" width="625" height="364" fill="#ffffbf" stroke="none" stroke-width="0"/>

<!-- Association POSSEDE -->
<g>
	<line x1="379" y1="68" x2="226" y2="68" stroke="#66c2a5" stroke-width="2"/>
	<line x1="226" y1="186" x2="226" y2="68" stroke="#66c2a5" stroke-width="2"/>
	<g>
		<path d="M250 43 a14 14 90 0 1 14 14 V68 h-76 V57 a14 14 90 0 1 14 -14" fill="#abdda4" stroke="#abdda4" stroke-width="0"/>
		<path d="M264 68 v11 a14 14 90 0 1 -14 14 H202 a14 14 90 0 1 -14 -14 V68 H76" fill="#e6f598" stroke="#e6f598" stroke-width="0"/>
		<rect x="188" y="43" width="76" height="50" fill="none" rx="14" stroke="#66c2a5" stroke-width="2"/>
		<line x1="188" y1="68" x2="264" y2="68" stroke="#66c2a5" stroke-width="1"/>
		<text x="195" y="60.75" fill="#000000" font-family="Verdana" font-size="12">POSSEDE</text>
	</g>
	<text x="299" y="85" fill="#d53e4f" font-family="Verdana" font-size="12">0,N</text>
	<text x="231" y="119" fill="#d53e4f" font-family="Verdana" font-size="12">1,1</text>
</g>

<!-- Association PAYER_UTILISATEUR -->
<g>
	<line x1="379" y1="68" x2="540" y2="68" stroke="#66c2a5" stroke-width="2"/>
	<line x1="540" y1="186" x2="540" y2="68" stroke="#66c2a5" stroke-width="2"/>
	<g>
		<path d="M602 43 a14 14 90 0 1 14 14 V68 h-152 V57 a14 14 90 0 1 14 -14" fill="#abdda4" stroke="#abdda4" stroke-width="0"/>
		<path d="M616 68 v11 a14 14 90 0 1 -14 14 H478 a14 14 90 0 1 -14 -14 V68 H152" fill="#e6f598" stroke="#e6f598" stroke-width="0"/>
		<rect x="464" y="43" width="152" height="50" fill="none" rx="14" stroke="#66c2a5" stroke-width="2"/>
		<line x1="464" y1="68" x2="616" y2="68" stroke="#66c2a5" stroke-width="1"/>
		<text x="472" y="60.75" fill="#000000" font-family="Verdana" font-size="12">PAYER_UTILISATEUR</text>
	</g>
	<text x="436" y="85" fill="#d53e4f" font-family="Verdana" font-size="12">1,N</text>
	<text x="545" y="110" fill="#d53e4f" font-family="Verdana" font-size="12">1,N</text>
</g>

<!-- Association LIE_A -->
<g>
	<line x1="226" y1="186" x2="124" y2="186" stroke="#66c2a5" stroke-width="2"/>
	<line x1="37" y1="186" x2="124" y2="186" stroke="#66c2a5" stroke-width="2"/>
	<g>
		<path d="M136 161 a14 14 90 0 1 14 14 V186 h-52 V175 a14 14 90 0 1 14 -14" fill="#abdda4" stroke="#abdda4" stroke-width="0"/>
		<path d="M150 186 v11 a14 14 90 0 1 -14 14 H112 a14 14 90 0 1 -14 -14 V186 H52" fill="#e6f598" stroke="#e6f598" stroke-width="0"/>
		<rect x="98" y="161" width="52" height="50" fill="none" rx="14" stroke="#66c2a5" stroke-width="2"/>
		<line x1="98" y1="186" x2="150" y2="186" stroke="#66c2a5" stroke-width="1"/>
		<text x="105" y="178.75" fill="#000000" font-family="Verdana" font-size="12">LIE_A</text>
	</g>
	<text x="156" y="203" fill="#d53e4f" font-family="Verdana" font-size="12">1,1</text>
	<text x="70" y="203" fill="#d53e4f" font-family="Verdana" font-size="12">1,N</text>
</g>

<!-- Association RESERVE -->
<g>
	<line x1="379" y1="68" x2="379" y2="186" stroke="#66c2a5" stroke-width="2"/>
	<line x1="379" y1="304" x2="379" y2="186" stroke="#66c2a5" stroke-width="2"/>
	<g>
		<path d="M402 161 a14 14 90 0 1 14 14 V186 h-74 V175 a14 14 90 0 1 14 -14" fill="#abdda4" stroke="#abdda4" stroke-width="0"/>
		<path d="M416 186 v11 a14 14 90 0 1 -14 14 H356 a14 14 90 0 1 -14 -14 V186 H74" fill="#e6f598" stroke="#e6f598" stroke-width="0"/>
		<rect x="342" y="161" width="74" height="50" fill="none" rx="14" stroke="#66c2a5" stroke-width="2"/>
		<line x1="342" y1="186" x2="416" y2="186" stroke="#66c2a5" stroke-width="1"/>
		<text x="349" y="178.75" fill="#000000" font-family="Verdana" font-size="12">RESERVE</text>
	</g>
	<text x="384" y="144" fill="#d53e4f" font-family="Verdana" font-size="12">1,N</text>
	<text x="384" y="245" fill="#d53e4f" font-family="Verdana" font-size="12">1,4</text>
</g>

<!-- Association SE_DEROULE_SUR -->
<g>
	<line x1="379" y1="304" x2="226" y2="304" stroke="#66c2a5" stroke-width="2"/>
	<line x1="226" y1="186" x2="226" y2="304" stroke="#66c2a5" stroke-width="2"/>
	<g>
		<path d="M280 279 a14 14 90 0 1 14 14 V304 h-136 V293 a14 14 90 0 1 14 -14" fill="#abdda4" stroke="#abdda4" stroke-width="0"/>
		<path d="M294 304 v11 a14 14 90 0 1 -14 14 H172 a14 14 90 0 1 -14 -14 V304 H136" fill="#e6f598" stroke="#e6f598" stroke-width="0"/>
		<rect x="158" y="279" width="136" height="50" fill="none" rx="14" stroke="#66c2a5" stroke-width="2"/>
		<line x1="158" y1="304" x2="294" y2="304" stroke="#66c2a5" stroke-width="1"/>
		<text x="165" y="296.75" fill="#000000" font-family="Verdana" font-size="12">SE_DEROULE_SUR</text>
	</g>
	<text x="300" y="321" fill="#d53e4f" font-family="Verdana" font-size="12">1,1</text>
	<text x="231" y="262" fill="#d53e4f" font-family="Verdana" font-size="12">1,N</text>
</g>

<!-- Association PAYER -->
<g>
	<line x1="379" y1="304" x2="540" y2="304" stroke="#66c2a5" stroke-width="2"/>
	<line x1="540" y1="186" x2="540" y2="304" stroke="#66c2a5" stroke-width="2"/>
	<g>
		<path d="M554 279 a14 14 90 0 1 14 14 V304 h-56 V293 a14 14 90 0 1 14 -14" fill="#abdda4" stroke="#abdda4" stroke-width="0"/>
		<path d="M568 304 v11 a14 14 90 0 1 -14 14 H526 a14 14 90 0 1 -14 -14 V304 H56" fill="#e6f598" stroke="#e6f598" stroke-width="0"/>
		<rect x="512" y="279" width="56" height="50" fill="none" rx="14" stroke="#66c2a5" stroke-width="2"/>
		<line x1="512" y1="304" x2="568" y2="304" stroke="#66c2a5" stroke-width="1"/>
		<text x="519" y="296.75" fill="#000000" font-family="Verdana" font-size="12">PAYER</text>
	</g>
	<text x="436" y="321" fill="#d53e4f" font-family="Verdana" font-size="12">1,N</text>
	<text x="545" y="271" fill="#d53e4f" font-family="Verdana" font-size="12">1,N</text>
</g>

<!-- Entity USER -->
<g>
	<g>
		<rect x="327" y="9" width="104" height="25" fill="#fdae61" stroke="none" stroke-width="0" opacity="1"/>
		<rect x="327" y="34" width="104" height="93" fill="#fee08b" stroke="none" stroke-width="0" opacity="1"/>
		<rect x="327" y="9" width="104" height="118" fill="none" stroke="#f46d43" stroke-width="2" opacity="1"/>
		<line x1="327" y1="34" x2="431" y2="34" stroke="#f46d43" stroke-width="1"/>
	</g>
	<text x="361" y="26.75" fill="#000000" font-family="Verdana" font-size="12">USER</text>
	<text x="332" y="51.8" fill="#000000" font-family="Verdana" font-size="12">id</text>
	<line x1="332" y1="54" x2="344" y2="54" stroke="#000000" stroke-width="1"/>
	<text x="332" y="68.8" fill="#000000" font-family="Verdana" font-size="12">nom</text>
	<text x="332" y="85.8" fill="#000000" font-family="Verdana" font-size="12">email</text>
	<text x="332" y="102.8" fill="#000000" font-family="Verdana" font-size="12">mot_de_passe</text>
	<text x="332" y="119.8" fill="#000000" font-family="Verdana" font-size="12">role</text>
</g>

<!-- Entity METEO -->
<g>
	<g>
		<rect x="9" y="144" width="56" height="25" fill="#fdae61" stroke="none" stroke-width="0" opacity="1"/>
		<rect x="9" y="169" width="56" height="59" fill="#fee08b" stroke="none" stroke-width="0" opacity="1"/>
		<rect x="9" y="144" width="56" height="84" fill="none" stroke="#f46d43" stroke-width="2" opacity="1"/>
		<line x1="9" y1="169" x2="65" y2="169" stroke="#f46d43" stroke-width="1"/>
	</g>
	<text x="14" y="161.75" fill="#000000" font-family="Verdana" font-size="12">METEO</text>
	<text x="14" y="186.8" fill="#000000" font-family="Verdana" font-size="12">id</text>
	<line x1="14" y1="189" x2="26" y2="189" stroke="#000000" stroke-width="1"/>
	<text x="14" y="203.8" fill="#000000" font-family="Verdana" font-size="12">temps</text>
	<text x="14" y="220.8" fill="#000000" font-family="Verdana" font-size="12">vent</text>
</g>

<!-- Entity COURT -->
<g>
	<g>
		<rect x="183" y="127" width="86" height="25" fill="#fdae61" stroke="none" stroke-width="0" opacity="1"/>
		<rect x="183" y="152" width="86" height="93" fill="#fee08b" stroke="none" stroke-width="0" opacity="1"/>
		<rect x="183" y="127" width="86" height="118" fill="none" stroke="#f46d43" stroke-width="2" opacity="1"/>
		<line x1="183" y1="152" x2="269" y2="152" stroke="#f46d43" stroke-width="1"/>
	</g>
	<text x="203" y="144.75" fill="#000000" font-family="Verdana" font-size="12">COURT</text>
	<text x="188" y="169.8" fill="#000000" font-family="Verdana" font-size="12">id</text>
	<line x1="188" y1="172" x2="200" y2="172" stroke="#000000" stroke-width="1"/>
	<text x="188" y="186.8" fill="#000000" font-family="Verdana" font-size="12">nom</text>
	<text x="188" y="203.8" fill="#000000" font-family="Verdana" font-size="12">localisation</text>
	<text x="188" y="220.8" fill="#000000" font-family="Verdana" font-size="12">tarif_base</text>
	<text x="188" y="237.8" fill="#000000" font-family="Verdana" font-size="12">tarif_meteo</text>
</g>

<!-- Entity PAIEMENT -->
<g>
	<g>
		<rect x="488" y="118" width="104" height="25" fill="#fdae61" stroke="none" stroke-width="0" opacity="1"/>
		<rect x="488" y="143" width="104" height="111" fill="#fee08b" stroke="none" stroke-width="0" opacity="1"/>
		<rect x="488" y="118" width="104" height="136" fill="none" stroke="#f46d43" stroke-width="2" opacity="1"/>
		<line x1="488" y1="143" x2="592" y2="143" stroke="#f46d43" stroke-width="1"/>
	</g>
	<text x="507" y="135.75" fill="#000000" font-family="Verdana" font-size="12">PAIEMENT</text>
	<text x="493" y="160.8" fill="#000000" font-family="Verdana" font-size="12">id</text>
	<line x1="493" y1="163" x2="505" y2="163" stroke="#000000" stroke-width="1"/>
	<text x="493" y="177.8" fill="#000000" font-family="Verdana" font-size="12">user_id</text>
	<text x="493" y="194.8" fill="#000000" font-family="Verdana" font-size="12">reservation_id</text>
	<text x="493" y="211.8" fill="#000000" font-family="Verdana" font-size="12">montant</text>
	<text x="493" y="228.8" fill="#000000" font-family="Verdana" font-size="12">methode</text>
	<text x="493" y="245.8" fill="#000000" font-family="Verdana" font-size="12">statut</text>
</g>

<!-- Entity RESERVATION -->
<g>
	<g>
		<rect x="327" y="253" width="104" height="25" fill="#fdae61" stroke="none" stroke-width="0" opacity="1"/>
		<rect x="327" y="278" width="104" height="77" fill="#fee08b" stroke="none" stroke-width="0" opacity="1"/>
		<rect x="327" y="253" width="104" height="102" fill="none" stroke="#f46d43" stroke-width="2" opacity="1"/>
		<line x1="327" y1="278" x2="431" y2="278" stroke="#f46d43" stroke-width="1"/>
	</g>
	<text x="332" y="270.75" fill="#000000" font-family="Verdana" font-size="12">RESERVATION</text>
	<text x="332" y="295.8" fill="#000000" font-family="Verdana" font-size="12">id</text>
	<line x1="332" y1="298" x2="344" y2="298" stroke="#000000" stroke-width="1"/>
	<text x="332" y="312.8" fill="#000000" font-family="Verdana" font-size="12">court_id</text>
	<text x="332" y="329.8" fill="#000000" font-family="Verdana" font-size="12">date_heure</text>
	<text x="332" y="346.8" fill="#000000" font-family="Verdana" font-size="12">statut</text>
</g>
</svg>