<?xml version="1.0" encoding="utf-8"?>
<!-- Generated by Mocodo 4.2.12 -->
<svg width="970" height="489" viewBox="0 0 970 489" xmlns="http://www.w3.org/2000/svg">
<rect x="0" y="0" width="970" height="489" fill="#ffffbf" stroke="none" stroke-width="0"/>

<!-- Association PAYER -->
<g>
	<line x1="246" y1="51" x2="85" y2="51" stroke="#66c2a5" stroke-width="2"/>
	<line x1="85" y1="152" x2="85" y2="51" stroke="#66c2a5" stroke-width="2"/>
	<g>
		<path d="M99 26 a14 14 90 0 1 14 14 V51 h-56 V40 a14 14 90 0 1 14 -14" fill="#abdda4" stroke="#abdda4" stroke-width="0"/>
		<path d="M113 51 v11 a14 14 90 0 1 -14 14 H71 a14 14 90 0 1 -14 -14 V51 H56" fill="#e6f598" stroke="#e6f598" stroke-width="0"/>
		<rect x="57" y="26" width="56" height="50" fill="none" rx="14" stroke="#66c2a5" stroke-width="2"/>
		<line x1="57" y1="51" x2="113" y2="51" stroke="#66c2a5" stroke-width="1"/>
		<text x="64" y="43.75" fill="#000000" font-family="Verdana" font-size="12">PAYER</text>
	</g>
	<text x="167" y="68" fill="#d53e4f" font-family="Verdana" font-size="12">0,1</text>
	<text x="90" y="93" fill="#d53e4f" font-family="Verdana" font-size="12">0,1</text>
</g>

<!-- Association RESERVE -->
<g>
	<line x1="246" y1="278" x2="246" y2="152" stroke="#66c2a5" stroke-width="2"/>
	<line x1="246" y1="51" x2="246" y2="152" stroke="#66c2a5" stroke-width="2"/>
	<g>
		<path d="M269 127 a14 14 90 0 1 14 14 V152 h-74 V141 a14 14 90 0 1 14 -14" fill="#abdda4" stroke="#abdda4" stroke-width="0"/>
		<path d="M283 152 v11 a14 14 90 0 1 -14 14 H223 a14 14 90 0 1 -14 -14 V152 H74" fill="#e6f598" stroke="#e6f598" stroke-width="0"/>
		<rect x="209" y="127" width="74" height="50" fill="none" rx="14" stroke="#66c2a5" stroke-width="2"/>
		<line x1="209" y1="152" x2="283" y2="152" stroke="#66c2a5" stroke-width="1"/>
		<text x="216" y="144.75" fill="#000000" font-family="Verdana" font-size="12">RESERVE</text>
	</g>
	<text x="251" y="211" fill="#d53e4f" font-family="Verdana" font-size="12">0,N</text>
	<text x="219" y="110" fill="#d53e4f" font-family="Verdana" font-size="12">1,4</text>
</g>

<!-- Association SE_DEROULE_SUR -->
<g>
	<line x1="246" y1="51" x2="384" y2="152" stroke="#66c2a5" stroke-width="2"/>
	<line x1="511" y1="278" x2="384" y2="152" stroke="#66c2a5" stroke-width="2"/>
	<g>
		<path d="M438 127 a14 14 90 0 1 14 14 V152 h-136 V141 a14 14 90 0 1 14 -14" fill="#abdda4" stroke="#abdda4" stroke-width="0"/>
		<path d="M452 152 v11 a14 14 90 0 1 -14 14 H330 a14 14 90 0 1 -14 -14 V152 H136" fill="#e6f598" stroke="#e6f598" stroke-width="0"/>
		<rect x="316" y="127" width="136" height="50" fill="none" rx="14" stroke="#66c2a5" stroke-width="2"/>
		<line x1="316" y1="152" x2="452" y2="152" stroke="#66c2a5" stroke-width="1"/>
		<text x="323" y="144.75" fill="#000000" font-family="Verdana" font-size="12">SE_DEROULE_SUR</text>
	</g>
	<text x="303" y="86.6" fill="#d53e4f" font-family="Verdana" font-size="12">1,1</text>
	<text x="439" y="244.31" fill="#d53e4f" font-family="Verdana" font-size="12">0,N</text>
</g>

<!-- Association LIE_A -->
<g>
	<line x1="511" y1="278" x2="511" y2="152" stroke="#66c2a5" stroke-width="2"/>
	<line x1="638" y1="152" x2="511" y2="152" stroke="#66c2a5" stroke-width="2"/>
	<g>
		<path d="M523 127 a14 14 90 0 1 14 14 V152 h-52 V141 a14 14 90 0 1 14 -14" fill="#abdda4" stroke="#abdda4" stroke-width="0"/>
		<path d="M537 152 v11 a14 14 90 0 1 -14 14 H499 a14 14 90 0 1 -14 -14 V152 H52" fill="#e6f598" stroke="#e6f598" stroke-width="0"/>
		<rect x="485" y="127" width="52" height="50" fill="none" rx="14" stroke="#66c2a5" stroke-width="2"/>
		<line x1="485" y1="152" x2="537" y2="152" stroke="#66c2a5" stroke-width="1"/>
		<text x="492" y="144.75" fill="#000000" font-family="Verdana" font-size="12">LIE_A</text>
	</g>
	<text x="516" y="194" fill="#d53e4f" font-family="Verdana" font-size="12">1,1</text>
	<text x="575" y="169" fill="#d53e4f" font-family="Verdana" font-size="12">1,N</text>
</g>

<!-- Association PAYER_UTILISATEUR -->
<g>
	<line x1="246" y1="278" x2="85" y2="278" stroke="#66c2a5" stroke-width="2"/>
	<line x1="85" y1="152" x2="85" y2="278" stroke="#66c2a5" stroke-width="2"/>
	<g>
		<path d="M147 253 a14 14 90 0 1 14 14 V278 h-152 V267 a14 14 90 0 1 14 -14" fill="#abdda4" stroke="#abdda4" stroke-width="0"/>
		<path d="M161 278 v11 a14 14 90 0 1 -14 14 H23 a14 14 90 0 1 -14 -14 V278 H152" fill="#e6f598" stroke="#e6f598" stroke-width="0"/>
		<rect x="9" y="253" width="152" height="50" fill="none" rx="14" stroke="#66c2a5" stroke-width="2"/>
		<line x1="9" y1="278" x2="161" y2="278" stroke="#66c2a5" stroke-width="1"/>
		<text x="17" y="270.75" fill="#000000" font-family="Verdana" font-size="12">PAYER_UTILISATEUR</text>
	</g>
	<text x="166" y="295" fill="#d53e4f" font-family="Verdana" font-size="12">0,N</text>
	<text x="90" y="220" fill="#d53e4f" font-family="Verdana" font-size="12">1,1</text>
</g>

<!-- Association POSSEDE -->
<g>
	<line x1="246" y1="278" x2="384" y2="278" stroke="#66c2a5" stroke-width="2"/>
	<line x1="511" y1="278" x2="384" y2="278" stroke="#66c2a5" stroke-width="2"/>
	<g>
		<path d="M408 253 a14 14 90 0 1 14 14 V278 h-76 V267 a14 14 90 0 1 14 -14" fill="#abdda4" stroke="#abdda4" stroke-width="0"/>
		<path d="M422 278 v11 a14 14 90 0 1 -14 14 H360 a14 14 90 0 1 -14 -14 V278 H76" fill="#e6f598" stroke="#e6f598" stroke-width="0"/>
		<rect x="346" y="253" width="76" height="50" fill="none" rx="14" stroke="#66c2a5" stroke-width="2"/>
		<line x1="346" y1="278" x2="422" y2="278" stroke="#66c2a5" stroke-width="1"/>
		<text x="353" y="270.75" fill="#000000" font-family="Verdana" font-size="12">POSSEDE</text>
	</g>
	<text x="303" y="295" fill="#d53e4f" font-family="Verdana" font-size="12">0,N</text>
	<text x="440" y="295" fill="#d53e4f" font-family="Verdana" font-size="12">1,1</text>
</g>

<!-- Association DISPOSE_DE -->
<g>
	<line x1="638" y1="404" x2="638" y2="278" stroke="#66c2a5" stroke-width="2"/>
	<line x1="511" y1="278" x2="638" y2="278" stroke="#66c2a5" stroke-width="2"/>
	<g>
		<path d="M674 253 a14 14 90 0 1 14 14 V278 h-100 V267 a14 14 90 0 1 14 -14" fill="#abdda4" stroke="#abdda4" stroke-width="0"/>
		<path d="M688 278 v11 a14 14 90 0 1 -14 14 H602 a14 14 90 0 1 -14 -14 V278 H100" fill="#e6f598" stroke="#e6f598" stroke-width="0"/>
		<rect x="588" y="253" width="100" height="50" fill="none" rx="14" stroke="#66c2a5" stroke-width="2"/>
		<line x1="588" y1="278" x2="688" y2="278" stroke="#66c2a5" stroke-width="1"/>
		<text x="596" y="270.75" fill="#000000" font-family="Verdana" font-size="12">DISPOSE_DE</text>
	</g>
	<text x="643" y="337" fill="#d53e4f" font-family="Verdana" font-size="12">1,N</text>
	<text x="560" y="295" fill="#d53e4f" font-family="Verdana" font-size="12">1,1</text>
</g>

<!-- Association LAISSE -->
<g>
	<line x1="246" y1="278" x2="246" y2="404" stroke="#66c2a5" stroke-width="2"/>
	<line x1="384" y1="404" x2="246" y2="404" stroke="#66c2a5" stroke-width="2"/>
	<g>
		<path d="M263 379 a14 14 90 0 1 14 14 V404 h-62 V393 a14 14 90 0 1 14 -14" fill="#abdda4" stroke="#abdda4" stroke-width="0"/>
		<path d="M277 404 v11 a14 14 90 0 1 -14 14 H229 a14 14 90 0 1 -14 -14 V404 H62" fill="#e6f598" stroke="#e6f598" stroke-width="0"/>
		<rect x="215" y="379" width="62" height="50" fill="none" rx="14" stroke="#66c2a5" stroke-width="2"/>
		<line x1="215" y1="404" x2="277" y2="404" stroke="#66c2a5" stroke-width="1"/>
		<text x="222" y="396.75" fill="#000000" font-family="Verdana" font-size="12">LAISSE</text>
	</g>
	<text x="251" y="354" fill="#d53e4f" font-family="Verdana" font-size="12">0,N</text>
	<text x="309" y="421" fill="#d53e4f" font-family="Verdana" font-size="12">1,1</text>
</g>

<!-- Association PORTE_SUR -->
<g>
	<line x1="384" y1="404" x2="511" y2="404" stroke="#66c2a5" stroke-width="2"/>
	<line x1="638" y1="404" x2="511" y2="404" stroke="#66c2a5" stroke-width="2"/>
	<g>
		<path d="M543 379 a14 14 90 0 1 14 14 V404 h-92 V393 a14 14 90 0 1 14 -14" fill="#abdda4" stroke="#abdda4" stroke-width="0"/>
		<path d="M557 404 v11 a14 14 90 0 1 -14 14 H479 a14 14 90 0 1 -14 -14 V404 H92" fill="#e6f598" stroke="#e6f598" stroke-width="0"/>
		<rect x="465" y="379" width="92" height="50" fill="none" rx="14" stroke="#66c2a5" stroke-width="2"/>
		<line x1="465" y1="404" x2="557" y2="404" stroke="#66c2a5" stroke-width="1"/>
		<text x="472" y="396.75" fill="#000000" font-family="Verdana" font-size="12">PORTE_SUR</text>
	</g>
	<text x="437" y="421" fill="#d53e4f" font-family="Verdana" font-size="12">1,1</text>
	<text x="573" y="421" fill="#d53e4f" font-family="Verdana" font-size="12">0,N</text>
</g>

<!-- Association EST_LOCALISE -->
<g>
	<line x1="638" y1="404" x2="764" y2="404" stroke="#66c2a5" stroke-width="2"/>
	<line x1="907" y1="404" x2="764" y2="404" stroke="#66c2a5" stroke-width="2"/>
	<g>
		<path d="M806 379 a14 14 90 0 1 14 14 V404 h-112 V393 a14 14 90 0 1 14 -14" fill="#abdda4" stroke="#abdda4" stroke-width="0"/>
		<path d="M820 404 v11 a14 14 90 0 1 -14 14 H722 a14 14 90 0 1 -14 -14 V404 H112" fill="#e6f598" stroke="#e6f598" stroke-width="0"/>
		<rect x="708" y="379" width="112" height="50" fill="none" rx="14" stroke="#66c2a5" stroke-width="2"/>
		<line x1="708" y1="404" x2="820" y2="404" stroke="#66c2a5" stroke-width="1"/>
		<text x="715" y="396.75" fill="#000000" font-family="Verdana" font-size="12">EST_LOCALISE</text>
	</g>
	<text x="680" y="421" fill="#d53e4f" font-family="Verdana" font-size="12">1,1</text>
	<text x="826" y="421" fill="#d53e4f" font-family="Verdana" font-size="12">1,1</text>
</g>

<!-- Entity RESERVATION -->
<g>
	<g>
		<rect x="194" y="9" width="104" height="25" fill="#fdae61" stroke="none" stroke-width="0" opacity="1"/>
		<rect x="194" y="34" width="104" height="59" fill="#fee08b" stroke="none" stroke-width="0" opacity="1"/>
		<rect x="194" y="9" width="104" height="84" fill="none" stroke="#f46d43" stroke-width="2" opacity="1"/>
		<line x1="194" y1="34" x2="298" y2="34" stroke="#f46d43" stroke-width="1"/>
	</g>
	<text x="199" y="26.75" fill="#000000" font-family="Verdana" font-size="12">RESERVATION</text>
	<text x="199" y="51.8" fill="#000000" font-family="Verdana" font-size="12">id</text>
	<line x1="199" y1="54" x2="211" y2="54" stroke="#000000" stroke-width="1"/>
	<text x="199" y="68.8" fill="#000000" font-family="Verdana" font-size="12">date_heure</text>
	<text x="199" y="85.8" fill="#000000" font-family="Verdana" font-size="12">statut</text>
</g>

<!-- Entity PAIEMENT -->
<g>
	<g>
		<rect x="46" y="101" width="78" height="25" fill="#fdae61" stroke="none" stroke-width="0" opacity="1"/>
		<rect x="46" y="126" width="78" height="77" fill="#fee08b" stroke="none" stroke-width="0" opacity="1"/>
		<rect x="46" y="101" width="78" height="102" fill="none" stroke="#f46d43" stroke-width="2" opacity="1"/>
		<line x1="46" y1="126" x2="124" y2="126" stroke="#f46d43" stroke-width="1"/>
	</g>
	<text x="52" y="118.75" fill="#000000" font-family="Verdana" font-size="12">PAIEMENT</text>
	<text x="51" y="143.8" fill="#000000" font-family="Verdana" font-size="12">id</text>
	<line x1="51" y1="146" x2="63" y2="146" stroke="#000000" stroke-width="1"/>
	<text x="51" y="160.8" fill="#000000" font-family="Verdana" font-size="12">montant</text>
	<text x="51" y="177.8" fill="#000000" font-family="Verdana" font-size="12">méthode</text>
	<text x="51" y="194.8" fill="#000000" font-family="Verdana" font-size="12">statut</text>
</g>

<!-- Entity METEO -->
<g>
	<g>
		<rect x="603" y="110" width="70" height="25" fill="#fdae61" stroke="none" stroke-width="0" opacity="1"/>
		<rect x="603" y="135" width="70" height="59" fill="#fee08b" stroke="none" stroke-width="0" opacity="1"/>
		<rect x="603" y="110" width="70" height="84" fill="none" stroke="#f46d43" stroke-width="2" opacity="1"/>
		<line x1="603" y1="135" x2="673" y2="135" stroke="#f46d43" stroke-width="1"/>
	</g>
	<text x="615" y="127.75" fill="#000000" font-family="Verdana" font-size="12">METEO</text>
	<text x="608" y="152.8" fill="#000000" font-family="Verdana" font-size="12">id</text>
	<line x1="608" y1="155" x2="620" y2="155" stroke="#000000" stroke-width="1"/>
	<text x="608" y="169.8" fill="#000000" font-family="Verdana" font-size="12">condition</text>
	<text x="608" y="186.8" fill="#000000" font-family="Verdana" font-size="12">vent</text>
</g>

<!-- Entity UTILISATEUR -->
<g>
	<g>
		<rect x="194" y="219" width="104" height="25" fill="#fdae61" stroke="none" stroke-width="0" opacity="1"/>
		<rect x="194" y="244" width="104" height="93" fill="#fee08b" stroke="none" stroke-width="0" opacity="1"/>
		<rect x="194" y="219" width="104" height="118" fill="none" stroke="#f46d43" stroke-width="2" opacity="1"/>
		<line x1="194" y1="244" x2="298" y2="244" stroke="#f46d43" stroke-width="1"/>
	</g>
	<text x="203" y="236.75" fill="#000000" font-family="Verdana" font-size="12">UTILISATEUR</text>
	<text x="199" y="261.8" fill="#000000" font-family="Verdana" font-size="12">id</text>
	<line x1="199" y1="264" x2="211" y2="264" stroke="#000000" stroke-width="1"/>
	<text x="199" y="278.8" fill="#000000" font-family="Verdana" font-size="12">nom</text>
	<text x="199" y="295.8" fill="#000000" font-family="Verdana" font-size="12">email</text>
	<text x="199" y="312.8" fill="#000000" font-family="Verdana" font-size="12">mot_de_passe</text>
	<text x="199" y="329.8" fill="#000000" font-family="Verdana" font-size="12">role</text>
</g>

<!-- Entity COURT -->
<g>
	<g>
		<rect x="467" y="202" width="88" height="25" fill="#fdae61" stroke="none" stroke-width="0" opacity="1"/>
		<rect x="467" y="227" width="88" height="127" fill="#fee08b" stroke="none" stroke-width="0" opacity="1"/>
		<rect x="467" y="202" width="88" height="152" fill="none" stroke="#f46d43" stroke-width="2" opacity="1"/>
		<line x1="467" y1="227" x2="555" y2="227" stroke="#f46d43" stroke-width="1"/>
	</g>
	<text x="488" y="219.75" fill="#000000" font-family="Verdana" font-size="12">COURT</text>
	<text x="472" y="244.8" fill="#000000" font-family="Verdana" font-size="12">id</text>
	<line x1="472" y1="247" x2="484" y2="247" stroke="#000000" stroke-width="1"/>
	<text x="472" y="261.8" fill="#000000" font-family="Verdana" font-size="12">nom</text>
	<text x="472" y="278.8" fill="#000000" font-family="Verdana" font-size="12">indoor</text>
	<text x="472" y="295.8" fill="#000000" font-family="Verdana" font-size="12">num_courts</text>
	<text x="472" y="312.8" fill="#000000" font-family="Verdana" font-size="12">lumières</text>
	<text x="472" y="329.8" fill="#000000" font-family="Verdana" font-size="12">tarif_base</text>
	<text x="472" y="346.8" fill="#000000" font-family="Verdana" font-size="12">tarif_meteo</text>
</g>

<!-- Entity AVIS -->
<g>
	<g>
		<rect x="336" y="362" width="96" height="25" fill="#fdae61" stroke="none" stroke-width="0" opacity="1"/>
		<rect x="336" y="387" width="96" height="59" fill="#fee08b" stroke="none" stroke-width="0" opacity="1"/>
		<rect x="336" y="362" width="96" height="84" fill="none" stroke="#f46d43" stroke-width="2" opacity="1"/>
		<line x1="336" y1="387" x2="432" y2="387" stroke="#f46d43" stroke-width="1"/>
	</g>
	<text x="368" y="379.75" fill="#000000" font-family="Verdana" font-size="12">AVIS</text>
	<text x="341" y="404.8" fill="#000000" font-family="Verdana" font-size="12">id</text>
	<line x1="341" y1="407" x2="353" y2="407" stroke="#000000" stroke-width="1"/>
	<text x="341" y="421.8" fill="#000000" font-family="Verdana" font-size="12">note</text>
	<text x="341" y="438.8" fill="#000000" font-family="Verdana" font-size="12">commentaire</text>
</g>

<!-- Entity CLUB -->
<g>
	<g>
		<rect x="601" y="345" width="74" height="25" fill="#fdae61" stroke="none" stroke-width="0" opacity="1"/>
		<rect x="601" y="370" width="74" height="93" fill="#fee08b" stroke="none" stroke-width="0" opacity="1"/>
		<rect x="601" y="345" width="74" height="118" fill="none" stroke="#f46d43" stroke-width="2" opacity="1"/>
		<line x1="601" y1="370" x2="675" y2="370" stroke="#f46d43" stroke-width="1"/>
	</g>
	<text x="621" y="362.75" fill="#000000" font-family="Verdana" font-size="12">CLUB</text>
	<text x="606" y="387.8" fill="#000000" font-family="Verdana" font-size="12">id</text>
	<line x1="606" y1="390" x2="618" y2="390" stroke="#000000" stroke-width="1"/>
	<text x="606" y="404.8" fill="#000000" font-family="Verdana" font-size="12">nom</text>
	<text x="606" y="421.8" fill="#000000" font-family="Verdana" font-size="12">téléphone</text>
	<text x="606" y="438.8" fill="#000000" font-family="Verdana" font-size="12">email</text>
	<text x="606" y="455.8" fill="#000000" font-family="Verdana" font-size="12">site_web</text>
</g>

<!-- Entity LOCALISATION -->
<g>
	<g>
		<rect x="853" y="328" width="108" height="25" fill="#fdae61" stroke="none" stroke-width="0" opacity="1"/>
		<rect x="853" y="353" width="108" height="127" fill="#fee08b" stroke="none" stroke-width="0" opacity="1"/>
		<rect x="853" y="328" width="108" height="152" fill="none" stroke="#f46d43" stroke-width="2" opacity="1"/>
		<line x1="853" y1="353" x2="961" y2="353" stroke="#f46d43" stroke-width="1"/>
	</g>
	<text x="858" y="345.75" fill="#000000" font-family="Verdana" font-size="12">LOCALISATION</text>
	<text x="858" y="370.8" fill="#000000" font-family="Verdana" font-size="12">id</text>
	<line x1="858" y1="373" x2="870" y2="373" stroke="#000000" stroke-width="1"/>
	<text x="858" y="387.8" fill="#000000" font-family="Verdana" font-size="12">nom</text>
	<text x="858" y="404.8" fill="#000000" font-family="Verdana" font-size="12">adresse</text>
	<text x="858" y="421.8" fill="#000000" font-family="Verdana" font-size="12">ville</text>
	<text x="858" y="438.8" fill="#000000" font-family="Verdana" font-size="12">code_postal</text>
	<text x="858" y="455.8" fill="#000000" font-family="Verdana" font-size="12">latitude</text>
	<text x="858" y="472.8" fill="#000000" font-family="Verdana" font-size="12">longitude</text>
</g>
</svg>